<svg width="32.000000" height="32.000000" viewBox="0 0 32 32" fill="none" xmlns="http://www.w3.org/2000/svg" xmlns:xlink="http://www.w3.org/1999/xlink">
	<desc>
			Created with Pixso.
	</desc>
	<defs/>
	<path id="Union" d="M21.7227 5.61322L21.1679 6.44528L21.1569 6.46191L9.17905 24.4286L9.16794 24.4453L8.61325 25.2773L10.2773 26.3867L10.8321 25.5547L10.8431 25.538L22.821 7.57132L22.8321 7.55466L23.3867 6.72263L21.7227 5.61322ZM7 8.99997L7 5.99997L9 5.99997L9 8.99997L12 8.99997L12 11L9 11L9 14L7 14L7 11L4 11L4 8.99997L7 8.99997ZM28 23L20 23L20 21L28 21L28 23Z" clip-rule="evenodd" fill="#000000" fill-opacity="1.000000" fill-rule="evenodd"/>
</svg>
